<svg width="134" height="140" viewBox="0 0 134 140" fill="none" xmlns="http://www.w3.org/2000/svg">
<path d="M110.489 134.509C111.763 134.509 112.985 134.003 113.886 133.102C114.787 132.201 115.293 130.979 115.293 129.705V68.4553C115.293 66.405 114.889 64.3748 114.105 62.4806C113.32 60.5864 112.17 58.8653 110.72 57.4155C109.271 55.9657 107.549 54.8157 105.655 54.0311C103.761 53.2465 101.731 52.8427 99.6805 52.8427H86.4698V15.6126C86.4698 13.5623 86.066 11.5321 85.2814 9.63792C84.4968 7.74371 83.3468 6.02259 81.897 4.57283C80.4472 3.12306 78.7261 1.97305 76.8319 1.18844C74.9377 0.403832 72.9075 0 70.8572 0H14.4116C10.5894 0 6.92378 1.51837 4.22107 4.22107C1.51837 6.92378 0 10.5894 0 14.4116V129.705C0 130.979 0.506123 132.201 1.40702 133.102C2.30793 134.003 3.52981 134.509 4.80388 134.509H110.489Z" fill="url(#paint0_linear_80_2103)"/>
<path d="M110.489 134.509C111.763 134.509 112.985 134.003 113.886 133.102C114.787 132.201 115.293 130.979 115.293 129.705V68.4553C115.293 66.405 114.889 64.3748 114.105 62.4806C113.32 60.5864 112.17 58.8653 110.72 57.4155C109.271 55.9657 107.549 54.8157 105.655 54.0311C103.761 53.2465 101.731 52.8427 99.6805 52.8427H86.4698V15.6126C86.4698 13.5623 86.066 11.5321 85.2814 9.63792C84.4968 7.74371 83.3468 6.02259 81.897 4.57283C80.4472 3.12306 78.7261 1.97305 76.8319 1.18844C74.9377 0.403832 72.9075 0 70.8572 0H14.4116C10.5894 0 6.92378 1.51837 4.22107 4.22107C1.51837 6.92378 0 10.5894 0 14.4116V129.705C0 130.979 0.506123 132.201 1.40702 133.102C2.30793 134.003 3.52981 134.509 4.80388 134.509H110.489Z" fill="url(#paint1_radial_80_2103)"/>
<path d="M110.489 134.509C111.763 134.509 112.985 134.003 113.886 133.102C114.787 132.201 115.293 130.979 115.293 129.705V68.4553C115.293 66.405 114.889 64.3748 114.105 62.4806C113.32 60.5864 112.17 58.8653 110.72 57.4155C109.271 55.9657 107.549 54.8157 105.655 54.0311C103.761 53.2465 101.731 52.8427 99.6805 52.8427H86.4698V15.6126C86.4698 13.5623 86.066 11.5321 85.2814 9.63792C84.4968 7.74371 83.3468 6.02259 81.897 4.57283C80.4472 3.12306 78.7261 1.97305 76.8319 1.18844C74.9377 0.403832 72.9075 0 70.8572 0H14.4116C10.5894 0 6.92378 1.51837 4.22107 4.22107C1.51837 6.92378 0 10.5894 0 14.4116V129.705C0 130.979 0.506123 132.201 1.40702 133.102C2.30793 134.003 3.52981 134.509 4.80388 134.509H110.489Z" fill="url(#paint2_radial_80_2103)"/>
<path d="M31.2254 38.431C33.1365 38.431 34.9693 37.6718 36.3206 36.3205C37.672 34.9691 38.4312 33.1363 38.4312 31.2252C38.4312 29.3141 37.672 27.4812 36.3206 26.1299C34.9693 24.7785 33.1365 24.0193 31.2254 24.0193C29.3142 24.0193 27.4814 24.7785 26.1301 26.1299C24.7787 27.4812 24.0195 29.3141 24.0195 31.2252C24.0195 33.1363 24.7787 34.9691 26.1301 36.3205C27.4814 37.6718 29.3142 38.431 31.2254 38.431ZM31.2254 62.4504C33.1365 62.4504 34.9693 61.6912 36.3206 60.3399C37.672 58.9885 38.4312 57.1557 38.4312 55.2446C38.4312 53.3335 37.672 51.5006 36.3206 50.1493C34.9693 48.7979 33.1365 48.0387 31.2254 48.0387C29.3142 48.0387 27.4814 48.7979 26.1301 50.1493C24.7787 51.5006 24.0195 53.3335 24.0195 55.2446C24.0195 57.1557 24.7787 58.9885 26.1301 60.3399C27.4814 61.6912 29.3142 62.4504 31.2254 62.4504ZM38.4312 79.264C38.4312 81.1751 37.672 83.0079 36.3206 84.3592C34.9693 85.7106 33.1365 86.4698 31.2254 86.4698C29.3142 86.4698 27.4814 85.7106 26.1301 84.3592C24.7787 83.0079 24.0195 81.1751 24.0195 79.264C24.0195 77.3529 24.7787 75.52 26.1301 74.1687C27.4814 72.8173 29.3142 72.0581 31.2254 72.0581C33.1365 72.0581 34.9693 72.8173 36.3206 74.1687C37.672 75.52 38.4312 77.3529 38.4312 79.264ZM55.2447 38.431C57.1559 38.431 58.9887 37.6718 60.34 36.3205C61.6914 34.9691 62.4506 33.1363 62.4506 31.2252C62.4506 29.3141 61.6914 27.4812 60.34 26.1299C58.9887 24.7785 57.1559 24.0193 55.2447 24.0193C53.3336 24.0193 51.5008 24.7785 50.1495 26.1299C48.7981 27.4812 48.0389 29.3141 48.0389 31.2252C48.0389 33.1363 48.7981 34.9691 50.1495 36.3205C51.5008 37.6718 53.3336 38.431 55.2447 38.431ZM62.4506 55.2446C62.4506 57.1557 61.6914 58.9885 60.34 60.3399C58.9887 61.6912 57.1559 62.4504 55.2447 62.4504C53.3336 62.4504 51.5008 61.6912 50.1495 60.3399C48.7981 58.9885 48.0389 57.1557 48.0389 55.2446C48.0389 53.3335 48.7981 51.5006 50.1495 50.1493C51.5008 48.7979 53.3336 48.0387 55.2447 48.0387C57.1559 48.0387 58.9887 48.7979 60.34 50.1493C61.6914 51.5006 62.4506 53.3335 62.4506 55.2446Z" fill="url(#paint3_linear_80_2103)"/>
<path d="M81.666 110.489H105.685V139.313H81.666V110.489Z" fill="url(#paint4_linear_80_2103)"/>
<path d="M88.6227 76.3241C90.0341 75.1242 91.8263 74.4654 93.6788 74.4654C95.5313 74.4654 97.3234 75.1242 98.7349 76.3241L122.154 96.2313C123.898 97.7157 124.906 99.8871 124.906 102.179V133.308C124.906 136.622 122.216 139.313 118.902 139.313H103.289V117.695C103.289 116.424 102.785 115.205 101.889 114.305C100.992 113.405 99.775 112.896 98.5043 112.891H88.8533C87.5826 112.896 86.3656 113.405 85.4689 114.305C84.5721 115.205 84.0686 116.424 84.0686 117.695V139.313H68.456C65.1413 139.313 62.4512 136.622 62.4512 133.308V102.179C62.4512 99.8871 63.4552 97.7157 65.2038 96.2313L88.6227 76.3241Z" fill="url(#paint5_linear_80_2103)"/>
<path fill-rule="evenodd" clip-rule="evenodd" d="M89.7706 67.4944C90.8589 66.5615 92.2451 66.0488 93.6785 66.0488C95.112 66.0488 96.4982 66.5615 97.5865 67.4944L131.214 96.3177C132.424 97.3548 133.173 98.8302 133.295 100.419C133.418 102.009 132.904 103.581 131.867 104.792C130.83 106.002 129.354 106.751 127.765 106.873C126.176 106.996 124.603 106.482 123.393 105.445L93.6761 79.9605L63.9593 105.435C62.7482 106.456 61.183 106.956 59.6046 106.828C58.0262 106.7 56.5624 105.953 55.5317 104.751C54.5011 103.549 53.9871 101.988 54.1017 100.408C54.2162 98.829 54.9501 97.3587 56.1434 96.3177L89.7706 67.4944Z" fill="url(#paint6_linear_80_2103)"/>
<defs>
<linearGradient id="paint0_linear_80_2103" x1="3.91879e-07" y1="4.20339" x2="127.817" y2="144.462" gradientUnits="userSpaceOnUse">
<stop stop-color="#29C3FF"/>
<stop offset="1" stop-color="#2764E7"/>
</linearGradient>
<radialGradient id="paint1_radial_80_2103" cx="0" cy="0" r="1" gradientUnits="userSpaceOnUse" gradientTransform="translate(76.8621 96.0776) rotate(140.711) scale(34.138 13.7946)">
<stop stop-color="#4A43CB"/>
<stop offset="0.914" stop-color="#4A43CB" stop-opacity="0"/>
</radialGradient>
<radialGradient id="paint2_radial_80_2103" cx="0" cy="0" r="1" gradientUnits="userSpaceOnUse" gradientTransform="translate(86.4698 124.901) rotate(90) scale(48.0388 34.8281)">
<stop stop-color="#4A43CB"/>
<stop offset="0.914" stop-color="#4A43CB" stop-opacity="0"/>
</radialGradient>
<linearGradient id="paint3_linear_80_2103" x1="42.7547" y1="17.0825" x2="65.5683" y2="99.2145" gradientUnits="userSpaceOnUse">
<stop stop-color="#FDFDFD"/>
<stop offset="1" stop-color="#B3E0FF"/>
</linearGradient>
<linearGradient id="paint4_linear_80_2103" x1="93.6757" y1="110.489" x2="75.6035" y2="143.967" gradientUnits="userSpaceOnUse">
<stop stop-color="#944600"/>
<stop offset="1" stop-color="#CD8E02"/>
</linearGradient>
<linearGradient id="paint5_linear_80_2103" x1="7.57645" y1="81.6564" x2="52.7521" y2="168.304" gradientUnits="userSpaceOnUse">
<stop stop-color="#FFD394"/>
<stop offset="1" stop-color="#FFB357"/>
</linearGradient>
<linearGradient id="paint6_linear_80_2103" x1="97.452" y1="54.4471" x2="90.6017" y2="103.322" gradientUnits="userSpaceOnUse">
<stop stop-color="#FF921F"/>
<stop offset="1" stop-color="#EB4824"/>
</linearGradient>
</defs>
</svg>
